# xmcd CD database file
# Copyright (C) 1993-1996 Ti Kan
#
# Track frame offsets:
#  150
#  22203
#  44850
#  62468
#  83538
#  103525
#  120003
#  137465
#  153515
#  169363
#
# Disc length: 2726 seconds
#
# Revision: 3
# Processed by: cddbd v1.5.1PL2 Copyright (c) Steve Scherf et al.
# Submitted via: Advanced CD Ripper Pro 2.0
#
DISCID=7a0aa40a
DTITLE=Kenny Rogers - Something Inside So Strong
DYEAR=2003
DGENRE=other
TTITLE0=Planet Texas
TTITLE1=(Something Inside) So Strong
TTITLE2=If I Knew Then What I Know Now
TTITLE3=One Night
TTITLE4=There Lies The Difference
TTITLE5=If I Ever Fall In Love Again
TTITLE6=When You Put Your Heart In It
TTITLE7=The Vows Go Unbroken (Always Ture To You)
TTITLE8=Maybe
TTITLE9=Love The Way You Do
EXTD=
EXTT0=
EXTT1=
EXTT2=
EXTT3=
EXTT4=
EXTT5=
EXTT6=
EXTT7=
EXTT8=
EXTT9=
PLAYORDER=
